<?xml version="1.0" encoding="UTF-8"?>
<!DOCTYPE svg PUBLIC "-//W3C//DTD SVG 1.1//EN" "http://www.w3.org/Graphics/SVG/1.1/DTD/svg11.dtd">
<svg xmlns="http://www.w3.org/2000/svg" version="1.1" width="32px" height="32px" style="shape-rendering:geometricPrecision; text-rendering:geometricPrecision; image-rendering:optimizeQuality; fill-rule:evenodd; clip-rule:evenodd" xmlns:xlink="http://www.w3.org/1999/xlink">
<g><path style="opacity:1" fill="#b1c1c5" d="M 9.5,-0.5 C 13.5,-0.5 17.5,-0.5 21.5,-0.5C 22.8333,0.833333 24.1667,2.16667 25.5,3.5C 25.1667,3.5 24.8333,3.5 24.5,3.5C 23.609,2.89022 22.609,2.55688 21.5,2.5C 19.7103,1.00268 17.5437,0.33601 15,0.5C 12.2248,0.409187 9.72477,1.07585 7.5,2.5C 8.16667,1.5 8.83333,0.5 9.5,-0.5 Z"/></g>
<g><path style="opacity:1" fill="#aabbbf" d="M 21.5,-0.5 C 24.8333,-0.5 28.1667,-0.5 31.5,-0.5C 31.5,2.5 31.5,5.5 31.5,8.5C 29.8171,6.48644 27.8171,4.81978 25.5,3.5C 24.1667,2.16667 22.8333,0.833333 21.5,-0.5 Z"/></g>
<g><path style="opacity:1" fill="#b5c6ca" d="M 21.5,2.5 C 19.3537,2.12181 17.187,1.78847 15,1.5C 12.2393,2.41764 9.40592,3.08431 6.5,3.5C 6.62867,5.2161 6.962,6.88277 7.5,8.5C 6.05322,7.86581 5.38655,6.69915 5.5,5C 5.68423,3.62439 6.35089,2.79106 7.5,2.5C 9.72477,1.07585 12.2248,0.409187 15,0.5C 17.5437,0.33601 19.7103,1.00268 21.5,2.5 Z"/></g>
<g><path style="opacity:1" fill="#a9babe" d="M -0.5,-0.5 C 1.5,-0.5 3.5,-0.5 5.5,-0.5C 4.57111,2.41192 3.23778,5.07858 1.5,7.5C 0.833333,7.5 0.166667,7.5 -0.5,7.5C -0.5,4.83333 -0.5,2.16667 -0.5,-0.5 Z"/></g>
<g><path style="opacity:1" fill="#bbc8ca" d="M 21.5,2.5 C 22.609,2.55688 23.609,2.89022 24.5,3.5C 24.1667,5.83333 22.8333,7.16667 20.5,7.5C 16.1904,4.64136 12.1904,4.9747 8.5,8.5C 8.16667,8.5 7.83333,8.5 7.5,8.5C 6.962,6.88277 6.62867,5.2161 6.5,3.5C 9.40592,3.08431 12.2393,2.41764 15,1.5C 17.187,1.78847 19.3537,2.12181 21.5,2.5 Z"/></g>
<g><path style="opacity:1" fill="#afbec1" d="M 5.5,-0.5 C 6.83333,-0.5 8.16667,-0.5 9.5,-0.5C 8.83333,0.5 8.16667,1.5 7.5,2.5C 6.35089,2.79106 5.68423,3.62439 5.5,5C 5.38655,6.69915 6.05322,7.86581 7.5,8.5C 7.5,9.16667 7.5,9.83333 7.5,10.5C 7.16667,10.5 6.83333,10.5 6.5,10.5C 5.59942,8.2729 3.93275,7.2729 1.5,7.5C 3.23778,5.07858 4.57111,2.41192 5.5,-0.5 Z"/></g>
<g><path style="opacity:1" fill="#a5b5ba" d="M 24.5,3.5 C 24.8333,3.5 25.1667,3.5 25.5,3.5C 27.8171,4.81978 29.8171,6.48644 31.5,8.5C 31.5,10.1667 31.5,11.8333 31.5,13.5C 30.1766,11.2377 28.8432,8.9044 27.5,6.5C 26.4777,6.85549 25.811,7.52216 25.5,8.5C 25.2317,11.1194 25.565,13.6194 26.5,16C 25.9558,16.7172 25.2891,17.2172 24.5,17.5C 24.5,17.1667 24.5,16.8333 24.5,16.5C 24.6641,13.8127 24.4974,11.146 24,8.5C 22.8545,9.6843 21.6879,9.6843 20.5,8.5C 20.5,8.16667 20.5,7.83333 20.5,7.5C 22.8333,7.16667 24.1667,5.83333 24.5,3.5 Z"/></g>
<g><path style="opacity:1" fill="#5795ad" d="M 20.5,7.5 C 20.5,7.83333 20.5,8.16667 20.5,8.5C 20.6309,9.37644 20.2975,10.0431 19.5,10.5C 18.8182,9.75731 18.1515,9.09065 17.5,8.5C 16.2486,6.439 14.5819,6.10566 12.5,7.5C 11.7542,8.73619 11.4208,10.0695 11.5,11.5C 11.5,12.5 11.5,13.5 11.5,14.5C 10.8333,14.5 10.1667,14.5 9.5,14.5C 9.67474,12.3792 9.34141,10.3792 8.5,8.5C 12.1904,4.9747 16.1904,4.64136 20.5,7.5 Z"/></g>
<g><path style="opacity:1" fill="#e7eaeb" d="M 17.5,8.5 C 17.5,9.5 17.5,10.5 17.5,11.5C 16.0568,10.6649 15.0568,9.3316 14.5,7.5C 13.9432,9.3316 12.9432,10.6649 11.5,11.5C 11.4208,10.0695 11.7542,8.73619 12.5,7.5C 14.5819,6.10566 16.2486,6.439 17.5,8.5 Z"/></g>
<g><path style="opacity:1" fill="#bbc8ca" d="M 1.5,7.5 C 3.93275,7.2729 5.59942,8.2729 6.5,10.5C 5.69929,12.0418 5.36596,13.7085 5.5,15.5C 5.5,17.8333 5.5,20.1667 5.5,22.5C 4.16667,23.5 4.16667,24.5 5.5,25.5C 5.83333,26.1667 6.16667,26.8333 6.5,27.5C 5.83333,27.5 5.16667,27.5 4.5,27.5C 3.92783,25.7446 3.0945,24.0779 2,22.5C 1.50074,17.5111 1.33407,12.5111 1.5,7.5 Z"/></g>
<g><path style="opacity:1" fill="#4a826e" d="M 7.5,8.5 C 7.83333,8.5 8.16667,8.5 8.5,8.5C 9.34141,10.3792 9.67474,12.3792 9.5,14.5C 9.15829,15.3382 8.49162,15.6716 7.5,15.5C 8.07145,14.0267 8.07145,12.36 7.5,10.5C 7.5,9.83333 7.5,9.16667 7.5,8.5 Z"/></g>
<g><path style="opacity:1" fill="#8a9aa3" d="M 17.5,11.5 C 16.8333,12.1667 16.1667,12.8333 15.5,13.5C 14.0413,13.4326 12.7079,13.7659 11.5,14.5C 11.5,13.5 11.5,12.5 11.5,11.5C 12.9432,10.6649 13.9432,9.3316 14.5,7.5C 15.0568,9.3316 16.0568,10.6649 17.5,11.5 Z"/></g>
<g><path style="opacity:1" fill="#bdcacc" d="M 25.5,8.5 C 26.9311,8.88066 27.7645,9.88066 28,11.5C 28.8119,15.6888 28.6453,19.6888 27.5,23.5C 26.5,23.5 25.5,23.5 24.5,23.5C 25.8333,22.5 25.8333,21.5 24.5,20.5C 23.1667,19.5 23.1667,18.5 24.5,17.5C 25.2891,17.2172 25.9558,16.7172 26.5,16C 25.565,13.6194 25.2317,11.1194 25.5,8.5 Z"/></g>
<g><path style="opacity:1" fill="#7aa6bb" d="M 6.5,10.5 C 6.83333,10.5 7.16667,10.5 7.5,10.5C 8.07145,12.36 8.07145,14.0267 7.5,15.5C 7.06233,16.5063 6.39567,16.5063 5.5,15.5C 5.36596,13.7085 5.69929,12.0418 6.5,10.5 Z"/></g>
<g><path style="opacity:1" fill="#335768" d="M 17.5,8.5 C 18.1515,9.09065 18.8182,9.75731 19.5,10.5C 20.2975,10.0431 20.6309,9.37644 20.5,8.5C 21.6879,9.6843 22.8545,9.6843 24,8.5C 24.4974,11.146 24.6641,13.8127 24.5,16.5C 21.7718,16.1706 19.4385,16.8372 17.5,18.5C 16.8333,18.5 16.1667,18.5 15.5,18.5C 16.355,17.4693 17.0217,16.3026 17.5,15C 17.1639,13.9701 16.4972,13.4701 15.5,13.5C 16.1667,12.8333 16.8333,12.1667 17.5,11.5C 17.5,10.5 17.5,9.5 17.5,8.5 Z"/></g>
<g><path style="opacity:1" fill="#a0a7ac" d="M 22.5,10.5 C 23.4345,11.5676 23.7678,12.901 23.5,14.5C 21.8561,14.2865 20.3561,14.6198 19,15.5C 18.8333,15 18.6667,14.5 18.5,14C 19.6856,12.5879 21.019,11.4212 22.5,10.5 Z"/></g>
<g><path style="opacity:1" fill="#b2c2c6" d="M 31.5,13.5 C 31.5,15.1667 31.5,16.8333 31.5,18.5C 30.5389,21.0547 29.2055,23.388 27.5,25.5C 27.5,24.8333 27.5,24.1667 27.5,23.5C 28.6453,19.6888 28.8119,15.6888 28,11.5C 27.7645,9.88066 26.9311,8.88066 25.5,8.5C 25.811,7.52216 26.4777,6.85549 27.5,6.5C 28.8432,8.9044 30.1766,11.2377 31.5,13.5 Z"/></g>
<g><path style="opacity:1" fill="#838c91" d="M 12.5,19.5 C 10.4471,19.4021 8.78041,20.0687 7.5,21.5C 6.56552,20.4324 6.23219,19.099 6.5,17.5C 9.26462,17.2024 11.7646,16.2024 14,14.5C 14.6128,16.4952 14.1128,18.1619 12.5,19.5 Z"/></g>
<g><path style="opacity:1" fill="#4b5f69" d="M 15.5,13.5 C 16.4972,13.4701 17.1639,13.9701 17.5,15C 17.0217,16.3026 16.355,17.4693 15.5,18.5C 15.5,18.8333 15.5,19.1667 15.5,19.5C 14.5,19.5 13.5,19.5 12.5,19.5C 14.1128,18.1619 14.6128,16.4952 14,14.5C 11.7646,16.2024 9.26462,17.2024 6.5,17.5C 6.23219,19.099 6.56552,20.4324 7.5,21.5C 7.15829,22.3382 6.49162,22.6716 5.5,22.5C 5.5,20.1667 5.5,17.8333 5.5,15.5C 6.39567,16.5063 7.06233,16.5063 7.5,15.5C 8.49162,15.6716 9.15829,15.3382 9.5,14.5C 10.1667,14.5 10.8333,14.5 11.5,14.5C 12.7079,13.7659 14.0413,13.4326 15.5,13.5 Z"/></g>
<g><path style="opacity:1" fill="#4c916a" d="M 24.5,16.5 C 24.5,16.8333 24.5,17.1667 24.5,17.5C 22.5168,17.1568 21.1834,17.8235 20.5,19.5C 19.391,19.4431 18.391,19.1098 17.5,18.5C 19.4385,16.8372 21.7718,16.1706 24.5,16.5 Z"/></g>
<g><path style="opacity:1" fill="#77ce86" d="M 24.5,17.5 C 23.1667,18.5 23.1667,19.5 24.5,20.5C 23.0413,20.5674 21.7079,20.2341 20.5,19.5C 21.1834,17.8235 22.5168,17.1568 24.5,17.5 Z"/></g>
<g><path style="opacity:1" fill="#aabcc2" d="M 31.5,18.5 C 31.5,22.8333 31.5,27.1667 31.5,31.5C 30.8333,31.5 30.1667,31.5 29.5,31.5C 28.7375,30.7321 27.7375,30.2321 26.5,30C 27.3802,28.6439 27.7135,27.1439 27.5,25.5C 29.2055,23.388 30.5389,21.0547 31.5,18.5 Z"/></g>
<g><path style="opacity:1" fill="#305466" d="M 12.5,19.5 C 11.7659,20.7079 11.4326,22.0413 11.5,23.5C 11.1667,23.5 10.8333,23.5 10.5,23.5C 10.0269,22.0937 9.02694,21.427 7.5,21.5C 8.78041,20.0687 10.4471,19.4021 12.5,19.5 Z"/></g>
<g><path style="opacity:1" fill="#5e8a9f" d="M 15.5,18.5 C 16.1667,18.5 16.8333,18.5 17.5,18.5C 18.391,19.1098 19.391,19.4431 20.5,19.5C 21.7079,20.2341 23.0413,20.5674 24.5,20.5C 25.8333,21.5 25.8333,22.5 24.5,23.5C 23.5416,23.0472 22.7083,22.3805 22,21.5C 19.874,23.3766 17.374,24.3766 14.5,24.5C 15.038,22.8828 15.3713,21.2161 15.5,19.5C 15.5,19.1667 15.5,18.8333 15.5,18.5 Z"/></g>
<g><path style="opacity:1" fill="#889298" d="M 7.5,21.5 C 9.02694,21.427 10.0269,22.0937 10.5,23.5C 8.4862,23.3915 6.81953,24.0582 5.5,25.5C 4.16667,24.5 4.16667,23.5 5.5,22.5C 6.49162,22.6716 7.15829,22.3382 7.5,21.5 Z"/></g>
<g><path style="opacity:1" fill="#adbec3" d="M -0.5,7.5 C 0.166667,7.5 0.833333,7.5 1.5,7.5C 1.33407,12.5111 1.50074,17.5111 2,22.5C 3.0945,24.0779 3.92783,25.7446 4.5,27.5C 5.78881,28.6366 6.78881,29.9699 7.5,31.5C 4.83333,31.5 2.16667,31.5 -0.5,31.5C -0.5,23.5 -0.5,15.5 -0.5,7.5 Z"/></g>
<g><path style="opacity:1" fill="#c5d2d5" d="M 24.5,23.5 C 25.895,24.6477 25.7284,25.6477 24,26.5C 21.2628,25.3895 18.4294,25.2228 15.5,26C 17.1341,26.4935 18.8008,26.6602 20.5,26.5C 19.8478,27.7251 18.6811,28.3917 17,28.5C 14.1226,28.5627 13.2892,27.5627 14.5,25.5C 14.5,25.1667 14.5,24.8333 14.5,24.5C 17.374,24.3766 19.874,23.3766 22,21.5C 22.7083,22.3805 23.5416,23.0472 24.5,23.5 Z"/></g>
<g><path style="opacity:1" fill="#649b6d" d="M 12.5,19.5 C 13.5,19.5 14.5,19.5 15.5,19.5C 15.3713,21.2161 15.038,22.8828 14.5,24.5C 14.5,24.8333 14.5,25.1667 14.5,25.5C 13.5041,25.4142 12.6708,25.7476 12,26.5C 11.5172,25.552 11.3505,24.552 11.5,23.5C 11.4326,22.0413 11.7659,20.7079 12.5,19.5 Z"/></g>
<g><path style="opacity:1" fill="#bac8ca" d="M 10.5,23.5 C 10.8333,23.5 11.1667,23.5 11.5,23.5C 11.3505,24.552 11.5172,25.552 12,26.5C 12.6708,25.7476 13.5041,25.4142 14.5,25.5C 13.2892,27.5627 14.1226,28.5627 17,28.5C 18.6811,28.3917 19.8478,27.7251 20.5,26.5C 21.3764,26.3691 22.0431,26.7025 22.5,27.5C 21.8728,28.4168 21.5394,29.4168 21.5,30.5C 17.8183,30.6653 14.1516,30.4986 10.5,30C 8.93356,29.3918 7.60023,28.5585 6.5,27.5C 6.16667,26.8333 5.83333,26.1667 5.5,25.5C 6.81953,24.0582 8.4862,23.3915 10.5,23.5 Z"/></g>
<g><path style="opacity:1" fill="#adbec3" d="M 24.5,23.5 C 25.5,23.5 26.5,23.5 27.5,23.5C 27.5,24.1667 27.5,24.8333 27.5,25.5C 27.7135,27.1439 27.3802,28.6439 26.5,30C 27.7375,30.2321 28.7375,30.7321 29.5,31.5C 26.8333,31.5 24.1667,31.5 21.5,31.5C 21.5,31.1667 21.5,30.8333 21.5,30.5C 21.5394,29.4168 21.8728,28.4168 22.5,27.5C 22.0431,26.7025 21.3764,26.3691 20.5,26.5C 18.8008,26.6602 17.1341,26.4935 15.5,26C 18.4294,25.2228 21.2628,25.3895 24,26.5C 25.7284,25.6477 25.895,24.6477 24.5,23.5 Z"/></g>
<g><path style="opacity:1" fill="#b3c4c8" d="M 4.5,27.5 C 5.16667,27.5 5.83333,27.5 6.5,27.5C 7.60023,28.5585 8.93356,29.3918 10.5,30C 14.1516,30.4986 17.8183,30.6653 21.5,30.5C 21.5,30.8333 21.5,31.1667 21.5,31.5C 16.8333,31.5 12.1667,31.5 7.5,31.5C 6.78881,29.9699 5.78881,28.6366 4.5,27.5 Z"/></g>
</svg>
